<?xml version="1.0" standalone="no"?>
<!DOCTYPE svg PUBLIC "-//W3C//DTD SVG 20010904//EN"
 "http://www.w3.org/TR/2001/REC-SVG-20010904/DTD/svg10.dtd">
<svg version="1.0" xmlns="http://www.w3.org/2000/svg"
 width="512.000000pt" height="512.000000pt" viewBox="0 0 512.000000 512.000000"
 preserveAspectRatio="xMidYMid meet">

<g transform="translate(0.000000,512.000000) scale(0.100000,-0.100000)"
fill="#000000" stroke="none">
<path d="M3710 5109 c-34 -13 -2466 -2446 -2485 -2485 -20 -42 -19 -103 1
-134 35 -53 2440 -2452 2478 -2472 68 -35 146 -12 186 55 22 35 26 96 9 130
-6 12 -536 547 -1178 1190 l-1166 1167 1166 1168 c642 642 1172 1177 1178
1189 18 36 13 97 -12 134 -39 58 -113 83 -177 58z"/>
</g>
</svg>
