<?xml version="1.0" standalone="no"?>
<!DOCTYPE svg PUBLIC "-//W3C//DTD SVG 20010904//EN"
 "http://www.w3.org/TR/2001/REC-SVG-20010904/DTD/svg10.dtd">
<svg version="1.0" xmlns="http://www.w3.org/2000/svg"
 width="current" height="current" viewBox="0 0 512.000000 512.000000"
 preserveAspectRatio="xMidYMid meet">

<path d="M1290 5102 c-67 -33 -100 -123 -69 -185 6 -12 536 -547 1178 -1189
l1166 -1168 -1166 -1167 c-642 -643 -1172 -1178 -1178 -1190 -17 -34 -13 -95
9 -130 43 -71 122 -91 192 -50 24 14 591 574 1260 1244 1324 1325 1241 1235
1223 1331 -6 33 -140 170 -1233 1265 -675 675 -1241 1234 -1258 1242 -42 20
-81 19 -124 -3z"/>
</svg>
